<?xml version="1.0" encoding="utf-8"?>
<!-- Generator: Adobe Illustrator 24.0.1, SVG Export Plug-In . SVG Version: 6.00 Build 0)  -->
<svg version="1.1" id="Layer_1" xmlns="http://www.w3.org/2000/svg" xmlns:xlink="http://www.w3.org/1999/xlink" x="0px" y="0px"
	 viewBox="0 0 256 256" style="enable-background:new 0 0 256 256;" xml:space="preserve">
<style type="text/css">
	.st0{fill:#FFFFFF;}
</style>
<desc>Created with Fabric.js 1.7.22</desc>
<g transform="translate(128 128) scale(0.72 0.72)">
	<g transform="translate(-175.05 -175.05000000000004) scale(3.89 3.89)">
		<path class="st0" d="M74.4,67.4H27.3c-3.5,0-5.5-2.8-5.8-5.5c-0.2-2.1,0.7-4.5,2.8-5.8l-7.5-35.3c-0.1-0.6,0-1.3,0.4-1.8
			c0.4-0.5,1-0.8,1.6-0.8H88c0.6,0,1.3,0.3,1.6,0.9c0.4,0.6,0.5,1.3,0.3,1.9l-8,23.9c-1,3-3.4,5.1-6.4,5.7L27,59.5c0,0,0,0,0,0
			c-1.5,0.3-1.5,1.6-1.5,2c0,0.4,0.3,1.7,1.8,1.7h47.1c1.1,0,2,0.9,2,2.1C76.4,66.4,75.5,67.4,74.4,67.4z M21.2,22.4l7,32.6
			l46.7-8.5c1.5-0.3,2.8-1.4,3.3-2.9l7.1-21.1L21.2,22.4L21.2,22.4z"/>
		<path class="st0" d="M27.8,84.3c-3.6,0-6.6-3.1-6.6-6.8c0-3.8,2.9-6.8,6.6-6.8s6.6,3.1,6.6,6.8C34.4,81.2,31.5,84.3,27.8,84.3z
			 M27.8,74.8c-1.4,0-2.6,1.2-2.6,2.7c0,1.5,1.1,2.7,2.6,2.7s2.6-1.2,2.6-2.7C30.4,76,29.3,74.8,27.8,74.8z"/>
		<path class="st0" d="M68.8,84.3c-3.6,0-6.6-3.1-6.6-6.8c0-3.8,2.9-6.8,6.6-6.8s6.6,3.1,6.6,6.8C75.4,81.2,72.5,84.3,68.8,84.3z
			 M68.8,74.8c-1.4,0-2.6,1.2-2.6,2.7c0,1.5,1.1,2.7,2.6,2.7s2.6-1.2,2.6-2.7C71.4,76,70.3,74.8,68.8,74.8z"/>
		<path class="st0" d="M18.7,22.4c-0.9,0-1.7-0.7-2-1.6l-1.4-6.6C14.7,11,12,8.8,8.9,8.8H2c-1.1,0-2-0.9-2-2.1s0.9-2.1,2-2.1h6.9
			c5,0,9.2,3.6,10.3,8.6l1.4,6.6c0.2,1.1-0.4,2.2-1.5,2.5C19,22.4,18.8,22.4,18.7,22.4z"/>
	</g>
</g>
</svg>
